<?xml version="1.0" encoding="utf-8"?>
<!-- Generator: Adobe Illustrator 19.0.0, SVG Export Plug-In . SVG Version: 6.00 Build 0)  -->
<svg fill="#ED1C24" version="1.1" id="layer" xmlns="http://www.w3.org/2000/svg" xmlns:xlink="http://www.w3.org/1999/xlink" x="0px" y="0px"
	 viewBox="-153 -46 652 652" style="enable-background:new -153 -46 652 652;" xml:space="preserve">

<g>
	<path class="st0" d="M59.2,354.9c0-5.1-4.8-6.4-11.2-6.4H35.2v12.8H48C53.4,361.3,59.2,359.4,59.2,354.9z"/>
	<polygon class="st0" points="123.6,331 123,331 114.7,349.2 131.6,349.2 	"/>
	<path class="st0" d="M-132,401.8h599V285.7h-599V401.8z M257.4,315H280v22.7h0.3l23-22.7H325l-19.5,18.8l24.9,38h-24.3l-15.6-24.3
		l-10.2,9.9v14.4h-22.7V315H257.4z M174.7,315L174.7,315h21.4l28.4,30v-30H242v56.8h-17.2l-32.2-31.9h-0.3v31.9h-17.6V315z
		 M113.4,315.3h24.3l27.1,56.8h-23.6l-4.8-10.9h-27.1l-5.1,10.9H86.3L113.4,315.3z M12.3,315h38.6c17.9,0,29.4,5.7,29.4,14.7
		c0,6.7-7.7,10.9-16,12.4c9.9,1.6,17.9,6.4,17.9,14c0,7-5.7,15.3-28.7,15.3H11.9V315H12.3z"/>
	<path class="st0" d="M58.2,331.9c0-4.8-6.1-6.1-11.5-6.1H35.2V338h11.5C52.1,337.7,58.2,336.7,58.2,331.9z"/>
	<polygon class="st0" points="-63.1,258.2 -75.8,258.2 -75.8,156.1 -63.1,156.1 -63.1,149.7 -131.7,149.7 -131.7,156.1 
		-118.9,156.1 -118.9,258.5 -131.7,258.5 -131.7,264.9 -63.1,264.9 	"/>
	<path class="st0" d="M364.3,254.4c10.9,8.9,25.2,14,41.2,14c37,0,62.6-26.8,62.6-60.3s-25.5-60.3-62.6-60.3
		c-18.8,0-34.5,6.1-46,17.9c-10.2,10.2-16.6,26.2-16.3,42.1C343.2,225.7,351.2,243.5,364.3,254.4z M393.3,172.4
		c0-14,3.8-19.8,12.1-19.8c7.7,0,12.1,6.1,12.1,19.8v71.2c0,14-3.8,19.8-12.1,19.8s-12.1-6.4-12.1-20.4V172.4z"/>
	<path class="st0" d="M254.5,257.9c-0.3,0-0.3,0-1,0c-12.4,0-13.4-2.9-13.4-12.8v-70.9l65.4,90.6h22.7v-96.4
		c0-9.9,1.6-12.8,14.4-12.8h1.3v-6.4h-38.3v6.4h0.3c12.8,0,14.4,3.2,14.4,12.8v42.8l-44.4-61.9h-57.1v6.4h0.6c2.9,0,7,0.3,9.3,3.2
		c0.6,1,1.9,2.9,3.5,5.1v81.1c0,9.9-1,12.8-13.1,12.8h-0.3v6.7h35.4L254.5,257.9L254.5,257.9z"/>
	<polygon class="st0" points="12.3,257.9 1.4,257.9 1.4,205.5 1.4,155.8 12.3,155.8 12.3,149.4 -54.1,149.4 -54.1,155.8 
		-42.6,155.8 -42.6,257.9 -54.1,257.9 -54.1,264.6 12.3,264.6 	"/>
	<path class="st0" d="M19.3,257.9v6.7h99.3v-6.7h-1.6c-0.6,0-2.9,0-3.2-0.3c-8-1.9-6.4-8.3-4.5-12.8l6.1-16.6h33.5l10.9,30.3h-9.9
		v6.7H214v-6.7h-8L166.4,150h-31.6L101,245.8c-1.9,6.1-5.7,9.9-9.9,12.1c-1.6,0.6-3.5,1.3-5.7,1.3h-5.1l-44.7-77.9
		c0,0,14.7-14.7,16.3-16.3c4.8-4.8,12.4-7.7,17.9-8.3c2.6-0.3,5.7-0.3,8.3-0.3V150H25.7v6.4h5.7c2.9,0,8,0,9.9,3.5
		c1.3,2.6,0.3,6.4-2.9,9.3l-37,36.4l30.3,52.3H19.3z M131.9,181.3l14.4,39.6h-28.4L131.9,181.3z"/>
</g>
</svg>
